<?xml version="1.0" standalone="no"?>
<!DOCTYPE svg PUBLIC "-//W3C//DTD SVG 20010904//EN"
 "http://www.w3.org/TR/2001/REC-SVG-20010904/DTD/svg10.dtd">
<svg version="1.0" xmlns="http://www.w3.org/2000/svg"
 width="400.000000pt" height="400.000000pt" viewBox="0 0 400.000000 400.000000"
 preserveAspectRatio="xMidYMid meet">
<metadata>
Created by potrace 1.14, written by Peter Selinger 2001-2017
</metadata>
<g transform="translate(0.000000,400.000000) scale(0.100000,-0.100000)"
fill="#000000" stroke="none">
<path d="M804 3224 c-51 -10 -144 -41 -164 -54 -14 -10 -31 -15 -39 -12 -8 3
-11 0 -7 -7 4 -6 3 -11 -3 -11 -10 0 -93 -79 -124 -119 -11 -13 -23 -36 -29
-52 -5 -16 -14 -29 -20 -29 -5 0 -7 -4 -4 -9 3 -5 -2 -26 -11 -47 -14 -33 -17
-80 -18 -286 0 -145 -5 -252 -10 -257 -6 -5 -28 -11 -50 -14 -53 -7 -73 -12
-81 -20 -4 -4 -13 -7 -21 -7 -26 0 -115 -87 -143 -141 -26 -51 -37 -121 -34
-229 2 -94 22 -164 56 -206 67 -82 147 -131 224 -140 l54 -7 0 -96 c1 -345 6
-445 29 -501 13 -30 27 -60 32 -66 5 -6 6 -13 3 -16 -9 -10 139 -153 181 -174
90 -46 144 -57 280 -57 113 0 135 3 167 21 58 33 79 54 102 103 20 43 22 61
21 210 -2 143 -5 170 -23 212 -24 53 -31 63 -85 114 -53 51 -110 81 -170 90
-29 4 -55 6 -59 5 -5 -1 -9 112 -9 250 -4 694 -4 790 2 794 4 2 22 6 41 8 94
12 144 38 210 108 79 84 91 129 91 348 0 102 -2 196 -4 209 -3 22 -57 74 -79
77 -5 1 -13 3 -17 4 -9 3 -275 7 -289 4z"/>
<path d="M2849 3162 c-60 -31 -71 -70 -71 -254 1 -161 3 -194 22 -242 5 -13 7
-26 4 -29 -2 -2 2 -10 11 -17 8 -7 15 -18 15 -24 1 -18 62 -81 110 -113 42
-28 101 -49 160 -57 l25 -3 0 -513 c0 -448 -2 -513 -15 -515 -66 -10 -130 -29
-140 -41 -7 -7 -18 -14 -24 -14 -16 0 -116 -95 -117 -111 -1 -8 -1 -17 0 -21
0 -5 -3 -8 -9 -8 -23 0 -43 -115 -43 -246 1 -110 4 -139 21 -178 24 -53 62
-91 112 -113 43 -19 222 -25 300 -11 162 29 295 137 354 288 27 68 28 76 29
351 l2 255 35 3 c35 2 73 8 78 11 1 2 5 3 10 5 26 7 82 37 82 43 0 4 10 12 23
17 12 6 21 16 19 23 -1 7 4 12 10 12 16 0 48 50 72 110 26 63 29 227 5 296
-21 63 -58 122 -81 130 -10 3 -18 11 -18 19 0 22 -124 75 -190 81 -14 1 -30 2
-35 3 -7 1 -11 86 -12 249 -1 276 -9 321 -75 419 -36 53 -104 120 -130 129
-10 3 -18 9 -18 13 0 9 -93 48 -135 56 -16 4 -103 8 -192 10 -135 3 -167 0
-194 -13z"/>
<path d="M2098 2855 c-1 -1 -43 -6 -93 -9 -87 -7 -124 -13 -192 -34 -18 -6
-33 -9 -33 -6 0 2 -18 -5 -40 -16 -21 -11 -46 -20 -54 -20 -8 0 -19 -6 -23
-14 -4 -8 -10 -14 -13 -14 -15 2 -60 -19 -102 -48 -26 -19 -50 -34 -53 -34 -2
0 -20 -15 -39 -32 -19 -18 -42 -40 -52 -49 -66 -56 -203 -249 -177 -249 4 0 2
-4 -6 -9 -17 -11 -38 -66 -65 -171 -36 -139 -39 -312 -7 -440 30 -117 72 -225
96 -242 5 -4 6 -8 2 -8 -5 0 7 -23 27 -50 20 -28 36 -52 36 -55 0 -9 157 -165
168 -165 5 0 12 -4 14 -8 6 -16 99 -74 166 -103 37 -17 74 -34 83 -39 21 -11
97 -32 164 -45 112 -22 363 -21 455 2 14 4 27 7 30 8 3 0 22 4 42 8 32 7 108
39 170 72 10 5 18 15 18 22 0 7 4 13 10 13 14 0 39 54 50 108 15 81 -22 164
-98 221 -39 30 -55 35 -117 39 -60 4 -79 1 -120 -19 -28 -13 -57 -24 -65 -25
-8 -1 -35 -7 -60 -13 -54 -12 -202 -7 -250 9 -53 18 -65 21 -68 20 -1 0 -10 6
-18 15 -9 8 -22 15 -30 15 -8 0 -14 5 -14 10 0 6 -4 10 -10 10 -12 0 -100 91
-100 104 0 5 -7 17 -15 26 -36 39 -69 180 -68 285 0 82 39 246 62 265 3 3 17
21 30 40 14 19 31 39 38 43 7 5 11 13 7 18 -3 5 -2 8 3 7 5 -2 19 7 33 20 13
12 32 22 42 22 11 0 17 4 14 9 -10 15 136 55 215 59 57 3 99 -2 160 -18 46
-12 86 -25 89 -30 9 -15 76 -27 126 -23 76 6 159 68 190 140 27 62 17 178 -17
209 -10 9 -19 23 -19 31 0 7 -7 13 -15 13 -7 0 -18 6 -22 14 -4 8 -10 14 -13
14 -3 -1 -23 8 -45 19 -35 18 -96 36 -160 49 -11 2 -31 6 -45 9 -14 3 -59 8
-100 11 -41 3 -85 7 -97 9 -12 2 -23 2 -25 0z"/>
</g>
</svg>
